<svg xmlns="http://www.w3.org/2000/svg" xml:space="preserve" viewBox="194.5 38.5 482.8 482.8" version="1.1" y="0px" x="0px" xmlns:xlink="http://www.w3.org/1999/xlink" enable-background="new 194.5 38.5 482.8 482.8"><path id="SVGID_1_" d="m677.3 309.6v-58.1l-62.6-8.8c-1.3-6.4-3-12.6-4.9-18.7l50-39.1-29-50.3-58.6 23.7c-4.3-4.8-8.8-9.4-13.6-13.7l23.8-58.9-50.3-29-38.9 49.8c-6.3-2.1-12.8-3.8-19.3-5.2l-8.9-62.8h-58.1l-8.8 62.7c-6.3 1.3-12.6 3-18.6 5l-39-49.9-50.3 29.1 23.7 58.7c-4.8 4.3-9.3 8.9-13.6 13.6l-58.9-23.7-29 50.3 49.9 39c-2 6.1-3.6 12.3-5 18.6l-62.7 8.8v58.1l62.7 8.8c1.3 6.3 3 12.6 5 18.6l-49.9 39 29 50.3 58.8-23.7c4.3 4.8 8.9 9.4 13.6 13.6l-23.8 59 50.3 29 39-49.9c5.9 1.9 11.8 3.5 17.9 4.8l8.8 62.9h58.1l8.8-62.6c6.3-1.3 12.6-3 18.7-4.9l39.1 50 50.3-29.1-23.7-58.6c4.8-4.3 9.4-8.8 13.7-13.6l58.9 23.8 29.1-50.3-49.8-38.9c2-6.1 3.7-12.3 5.1-18.6l63-8.8zm-241.4 25.1c-30.3 0-54.9-24.6-54.9-54.9s24.6-54.9 54.9-54.9 54.9 24.6 54.9 54.9-24.6 54.9-54.9 54.9z" fill="#97A43F"/><defs><path id="SVGID_2_" d="m677.3 309.6v-58.1l-62.6-8.8c-1.3-6.4-3-12.6-4.9-18.7l50-39.1-29-50.3-58.6 23.7c-4.3-4.8-8.8-9.4-13.6-13.7l23.8-58.9-50.3-29-38.9 49.8c-6.3-2.1-12.8-3.8-19.3-5.2l-8.9-62.8h-58.1l-8.8 62.7c-6.3 1.3-12.6 3-18.6 5l-39-49.9-50.3 29.1 23.7 58.7c-4.8 4.3-9.3 8.9-13.6 13.6l-58.9-23.7-29 50.3 49.9 39c-2 6.1-3.6 12.3-5 18.6l-62.7 8.8v58.1l62.7 8.8c1.3 6.3 3 12.6 5 18.6l-49.9 39 29 50.3 58.8-23.7c4.3 4.8 8.9 9.4 13.6 13.6l-23.8 59 50.3 29 39-49.9c5.9 1.9 11.8 3.5 17.9 4.8l8.8 62.9h58.1l8.8-62.6c6.3-1.3 12.6-3 18.7-4.9l39.1 50 50.3-29.1-23.7-58.6c4.8-4.3 9.4-8.8 13.7-13.6l58.9 23.8 29.1-50.3-49.8-38.9c2-6.1 3.7-12.3 5.1-18.6l63-8.8zm-241.4 25.1c-30.3 0-54.9-24.6-54.9-54.9s24.6-54.9 54.9-54.9 54.9 24.6 54.9 54.9-24.6 54.9-54.9 54.9z"/></defs><clipPath id="SVGID_3_"><use overflow="visible" xlink:href="#SVGID_2_"/></clipPath><g clip-path="url(#SVGID_3_)"><linearGradient id="SVGID_4_" y2="273.2" gradientUnits="userSpaceOnUse" x2="681.27" gradientTransform="matrix(1 0 0 -1 0 598)" y1="273.2" x1="190.55"><stop stop-color="#707A28" offset="0"/><stop stop-color="#BCC07E" stop-opacity="0" offset="1"/></linearGradient><path opacity=".5" enable-background="new    " d="m453.5 234.7c-68 91.7-174.2 59.8-257.5-5.1-3.6 16.7-5.5 34-5.5 51.8 0 135.5 109.9 245.3 245.4 245.3s245.4-109.8 245.4-245.3c0-60.5-21.9-115.8-58.1-158.5-59.2 15.6-120.6 45.7-169.7 111.8z" fill="url(#SVGID_4_)"/><linearGradient id="SVGID_5_" y2="433.98" gradientUnits="userSpaceOnUse" x2="681.68" gradientTransform="matrix(1 0 0 -1 0 598)" y1="433.98" x1="190.96"><stop stop-color="#707A28" offset="0"/><stop stop-color="#BCC07E" stop-opacity="0" offset="1"/></linearGradient><path opacity=".2" enable-background="new    " d="m436.3 36.2c-117.7 0-216.1 82.9-239.8 193.6 83.2 64.9 189.4 96.8 257.4 5.1 49.1-66.2 110.5-96.3 169.6-111.9-45-53.1-112.1-86.8-187.2-86.8z" fill="url(#SVGID_5_)"/></g><defs><path id="SVGID_6_" d="m677.3 309.6v-58.1l-62.6-8.8c-1.3-6.4-3-12.6-4.9-18.7l50-39.1-29-50.3-58.6 23.7c-4.3-4.8-8.8-9.4-13.6-13.7l23.8-58.9-50.3-29-38.9 49.8c-6.3-2.1-12.8-3.8-19.3-5.2l-8.9-62.8h-58.1l-8.8 62.7c-6.3 1.3-12.6 3-18.6 5l-39-49.9-50.3 29.1 23.7 58.7c-4.8 4.3-9.3 8.9-13.6 13.6l-58.9-23.7-29 50.3 49.9 39c-2 6.1-3.6 12.3-5 18.6l-62.7 8.8v58.1l62.7 8.8c1.3 6.3 3 12.6 5 18.6l-49.9 39 29 50.3 58.8-23.7c4.3 4.8 8.9 9.4 13.6 13.6l-23.8 59 50.3 29 39-49.9c5.9 1.9 11.8 3.5 17.9 4.8l8.8 62.9h58.1l8.8-62.6c6.3-1.3 12.6-3 18.7-4.9l39.1 50 50.3-29.1-23.7-58.6c4.8-4.3 9.4-8.8 13.7-13.6l58.9 23.8 29.1-50.3-49.8-38.9c2-6.1 3.7-12.3 5.1-18.6l63-8.8zm-241.4 25.1c-30.3 0-54.9-24.6-54.9-54.9s24.6-54.9 54.9-54.9 54.9 24.6 54.9 54.9-24.6 54.9-54.9 54.9z"/></defs><clipPath id="SVGID_7_"><use overflow="visible" xlink:href="#SVGID_6_"/></clipPath><linearGradient id="SVGID_8_" y2="145.42" gradientUnits="userSpaceOnUse" x2="608.55" gradientTransform="matrix(1 0 0 -1 0 598)" y1="490.67" x1="263.3"><stop stop-color="#fff" offset="0"/><stop stop-color="#BFBC9E" offset=".3634"/><stop stop-color="#606422" offset="1"/></linearGradient><path opacity=".7" d="m466.6 524.2h-63l-8.9-63.4c-4.9-1.1-9.7-2.4-14.4-3.9l-39.3 50.3-54.5-31.5 23.9-59.2c-3.8-3.5-7.5-7.2-11.1-11.1l-59.2 23.9-31.5-54.6 50.3-39.3c-1.6-5-2.9-10.1-4-15.1l-63.2-8.9v-63l63.2-8.9c1.1-5 2.5-10.1 4-15.1l-50.3-39.3 31.5-54.6 59.2 23.9c3.5-3.8 7.2-7.5 11.1-11.1l-23.9-59.2 54.5-31.4 39.3 50.3c5.1-1.6 10.2-2.9 15.1-4.1l8.9-63.2h63l8.9 63.2c5.2 1.2 10.5 2.6 15.8 4.3l39.2-50.2 54.5 31.5-24 59.4c3.8 3.5 7.4 7.2 11 11.1l59.1-23.9 31.5 54.5-50.3 39.5c1.6 5.1 2.9 10.2 4 15.2l63 8.9v63l-63.4 8.9c-1.1 5-2.5 10.1-4.1 15.1l50.2 39.2-31.5 54.6-59.4-24c-3.5 3.8-7.2 7.4-11.1 11l23.8 59.1-54.5 31.4-39.4-50.4c-5.1 1.6-10.2 2.9-15.2 4l-8.8 63.1zm-58.1-5.7h53.2l8.7-62.1 1.9-0.4c6-1.3 12.2-2.9 18.4-4.9l1.9-0.6 38.8 49.7 46.1-26.6-23.5-58.2 1.5-1.3c4.8-4.3 9.3-8.8 13.5-13.3l1.3-1.5 58.4 23.6 26.6-46.1-49.4-38.6 0.6-1.9c2-6.1 3.7-12.3 5-18.3l0.4-1.9 62.4-8.8v-53.3l-62.1-8.7-0.4-1.9c-1.3-6.1-2.9-12.2-4.9-18.4l-0.6-1.9 49.6-38.8-26.6-46.1-58.2 23.5-1.3-1.5c-4.3-4.8-8.8-9.4-13.3-13.5l-1.5-1.3 23.7-58.4-46.1-26.6-38.6 49.4-1.9-0.6c-6.4-2.1-12.8-3.8-19-5.1l-1.9-0.4-8.7-62.3h-53.2l-8.7 62.3-1.9 0.4c-6 1.3-12.2 2.9-18.4 4.9l-1.9 0.6-38.9-49.6-46.1 26.6 23.6 58.4-1.5 1.3c-4.7 4.2-9.2 8.7-13.4 13.4l-1.3 1.5-58.3-23.5-26.6 46.1 49.6 38.7-0.6 1.9c-2 6.1-3.7 12.3-4.9 18.4l-0.4 1.9-62.3 8.7v53.2l62.3 8.8 0.4 1.9c1.3 6.1 2.9 12.3 4.9 18.4l0.6 1.9-49.6 38.7 26.6 46.1 58.3-23.5 1.3 1.4c4.2 4.7 8.8 9.2 13.4 13.4l1.5 1.3-23.6 58.3 46.1 26.6 38.7-49.5 1.9 0.6c5.7 1.9 11.7 3.5 17.7 4.8l1.9 0.4 8.8 62.3z" fill="url(#SVGID_8_)" enable-background="new    " clip-path="url(#SVGID_7_)"/><defs><path id="SVGID_9_" d="m677.3 309.6v-58.1l-62.6-8.8c-1.3-6.4-3-12.6-4.9-18.7l50-39.1-29-50.3-58.6 23.7c-4.3-4.8-8.8-9.4-13.6-13.7l23.8-58.9-50.3-29-38.9 49.8c-6.3-2.1-12.8-3.8-19.3-5.2l-8.9-62.8h-58.1l-8.8 62.7c-6.3 1.3-12.6 3-18.6 5l-39-49.9-50.3 29.1 23.7 58.7c-4.8 4.3-9.3 8.9-13.6 13.6l-58.9-23.7-29 50.3 49.9 39c-2 6.1-3.6 12.3-5 18.6l-62.7 8.8v58.1l62.7 8.8c1.3 6.3 3 12.6 5 18.6l-49.9 39 29 50.3 58.8-23.7c4.3 4.8 8.9 9.4 13.6 13.6l-23.8 59 50.3 29 39-49.9c5.9 1.9 11.8 3.5 17.9 4.8l8.8 62.9h58.1l8.8-62.6c6.3-1.3 12.6-3 18.7-4.9l39.1 50 50.3-29.1-23.7-58.6c4.8-4.3 9.4-8.8 13.7-13.6l58.9 23.8 29.1-50.3-49.8-38.9c2-6.1 3.7-12.3 5.1-18.6l63-8.8zm-241.4 25.1c-30.3 0-54.9-24.6-54.9-54.9s24.6-54.9 54.9-54.9 54.9 24.6 54.9 54.9-24.6 54.9-54.9 54.9z"/></defs><clipPath id="SVGID_10_"><use overflow="visible" xlink:href="#SVGID_9_"/></clipPath><g opacity=".7" clip-path="url(#SVGID_10_)"><linearGradient id="SVGID_11_" y2="433.71" gradientUnits="userSpaceOnUse" x2="320.35" gradientTransform="matrix(1 0 0 -1 0 598)" y1="202.6" x1="551.46"><stop stop-color="#606422" stop-opacity=".97" offset="0"/><stop stop-color="#818047" stop-opacity=".9747" offset=".0387"/><stop stop-color="#A2A077" stop-opacity=".9797" offset=".0797"/><stop stop-color="#C0BDA3" stop-opacity=".9846" offset=".1195"/><stop stop-color="#D8D6C8" stop-opacity=".9891" offset=".157"/><stop stop-color="#EBEAE4" stop-opacity=".9933" offset=".1917"/><stop stop-color="#F6F6F6" stop-opacity=".9971" offset=".2225"/><stop stop-color="#FAFAFC" offset=".2463"/><stop stop-color="#97A43F" offset=".7488"/><stop stop-color="#94A03D" offset=".7992"/><stop stop-color="#8A9437" offset=".8576"/><stop stop-color="#7A822F" offset=".92"/><stop stop-color="#656A24" offset=".9848"/><stop stop-color="#606422" offset="1"/></linearGradient><path d="m599.3 279.8c0 90.3-73.2 163.4-163.4 163.4-90.3 0-163.4-73.2-163.4-163.4 0-90.3 73.2-163.4 163.4-163.4 90.3 0 163.4 73.2 163.4 163.4z" fill="url(#SVGID_11_)"/><linearGradient id="SVGID_12_" y2="198.68" gradientUnits="userSpaceOnUse" x2="555.38" gradientTransform="matrix(1 0 0 -1 0 598)" y1="437.61" x1="316.44"><stop stop-color="#606422" offset="0"/><stop stop-color="#6D6F2F" offset=".0565"/><stop stop-color="#8E8C5A" offset=".2047"/><stop stop-color="#ADAA86" offset=".3524"/><stop stop-color="#C7C4AE" offset=".4962"/><stop stop-color="#DDDBCF" offset=".6352"/><stop stop-color="#EDECE8" offset=".7683"/><stop stop-color="#F7F6F7" offset=".8927"/><stop stop-color="#FAFAFC" offset="1"/></linearGradient><path d="m435.9 448.9c-93.2 0-169-75.8-169-169s75.8-169 169-169 169 75.8 169 169-75.8 169-169 169zm0-326.8c-87 0-157.8 70.8-157.8 157.8s70.8 157.8 157.8 157.8 157.8-70.8 157.8-157.8c0-87.1-70.8-157.8-157.8-157.8z" fill="url(#SVGID_12_)"/></g><defs><path id="SVGID_13_" d="m677.3 309.6v-58.1l-62.6-8.8c-1.3-6.4-3-12.6-4.9-18.7l50-39.1-29-50.3-58.6 23.7c-4.3-4.8-8.8-9.4-13.6-13.7l23.8-58.9-50.3-29-38.9 49.8c-6.3-2.1-12.8-3.8-19.3-5.2l-8.9-62.8h-58.1l-8.8 62.7c-6.3 1.3-12.6 3-18.6 5l-39-49.9-50.3 29.1 23.7 58.7c-4.8 4.3-9.3 8.9-13.6 13.6l-58.9-23.7-29 50.3 49.9 39c-2 6.1-3.6 12.3-5 18.6l-62.7 8.8v58.1l62.7 8.8c1.3 6.3 3 12.6 5 18.6l-49.9 39 29 50.3 58.8-23.7c4.3 4.8 8.9 9.4 13.6 13.6l-23.8 59 50.3 29 39-49.9c5.9 1.9 11.8 3.5 17.9 4.8l8.8 62.9h58.1l8.8-62.6c6.3-1.3 12.6-3 18.7-4.9l39.1 50 50.3-29.1-23.7-58.6c4.8-4.3 9.4-8.8 13.7-13.6l58.9 23.8 29.1-50.3-49.8-38.9c2-6.1 3.7-12.3 5.1-18.6l63-8.8zm-241.4 25.1c-30.3 0-54.9-24.6-54.9-54.9s24.6-54.9 54.9-54.9 54.9 24.6 54.9 54.9-24.6 54.9-54.9 54.9z"/></defs><clipPath id="SVGID_14_"><use overflow="visible" xlink:href="#SVGID_13_"/></clipPath><g opacity=".7" clip-path="url(#SVGID_14_)"><path d="m435.9 199.7c-44.3 0-80.2 35.9-80.2 80.2s35.9 80.2 80.2 80.2 80.1-35.9 80.1-80.2c0.1-44.3-35.8-80.2-80.1-80.2z" fill="#707A28"/><linearGradient id="SVGID_15_" y2="259.51" gradientUnits="userSpaceOnUse" x2="494.55" gradientTransform="matrix(1 0 0 -1 0 598)" y1="376.79" x1="377.26"><stop stop-color="#FAFAFC" offset="0"/><stop stop-color="#F7F7F7" offset=".108"/><stop stop-color="#EFEEEA" offset=".2332"/><stop stop-color="#E1E0D3" offset=".3671"/><stop stop-color="#CECDB4" offset=".507"/><stop stop-color="#B7B78E" offset=".6516"/><stop stop-color="#9A9D62" offset=".8003"/><stop stop-color="#7B8235" offset=".9494"/><stop stop-color="#707A28" offset="1"/></linearGradient><path d="m435.9 362.8c-45.8 0-83-37.2-83-83s37.2-83 83-83 83 37.2 83 83-37.2 83-83 83zm0-160.3c-42.7 0-77.4 34.7-77.4 77.3 0 42.7 34.7 77.4 77.4 77.4 42.6 0 77.4-34.7 77.4-77.4 0-42.6-34.7-77.3-77.4-77.3z" fill="url(#SVGID_15_)"/></g><defs><path id="SVGID_16_" d="m677.3 309.6v-58.1l-62.6-8.8c-1.3-6.4-3-12.6-4.9-18.7l50-39.1-29-50.3-58.6 23.7c-4.3-4.8-8.8-9.4-13.6-13.7l23.8-58.9-50.3-29-38.9 49.8c-6.3-2.1-12.8-3.8-19.3-5.2l-8.9-62.8h-58.1l-8.8 62.7c-6.3 1.3-12.6 3-18.6 5l-39-49.9-50.3 29.1 23.7 58.7c-4.8 4.3-9.3 8.9-13.6 13.6l-58.9-23.7-29 50.3 49.9 39c-2 6.1-3.6 12.3-5 18.6l-62.7 8.8v58.1l62.7 8.8c1.3 6.3 3 12.6 5 18.6l-49.9 39 29 50.3 58.8-23.7c4.3 4.8 8.9 9.4 13.6 13.6l-23.8 59 50.3 29 39-49.9c5.9 1.9 11.8 3.5 17.9 4.8l8.8 62.9h58.1l8.8-62.6c6.3-1.3 12.6-3 18.7-4.9l39.1 50 50.3-29.1-23.7-58.6c4.8-4.3 9.4-8.8 13.7-13.6l58.9 23.8 29.1-50.3-49.8-38.9c2-6.1 3.7-12.3 5.1-18.6l63-8.8zm-241.4 25.1c-30.3 0-54.9-24.6-54.9-54.9s24.6-54.9 54.9-54.9 54.9 24.6 54.9 54.9-24.6 54.9-54.9 54.9z"/></defs><clipPath id="SVGID_17_"><use overflow="visible" xlink:href="#SVGID_16_"/></clipPath><linearGradient id="SVGID_18_" y2="277.38" gradientUnits="userSpaceOnUse" x2="476.68" gradientTransform="matrix(1 0 0 -1 0 598)" y1="358.93" x1="395.13"><stop stop-color="#606422" offset="0"/><stop stop-color="#6D6F2F" offset=".0565"/><stop stop-color="#8E8C5A" offset=".2047"/><stop stop-color="#ADAA86" offset=".3524"/><stop stop-color="#C7C4AE" offset=".4962"/><stop stop-color="#DDDBCF" offset=".6352"/><stop stop-color="#EDECE8" offset=".7683"/><stop stop-color="#F7F6F7" offset=".8927"/><stop stop-color="#FAFAFC" offset="1"/></linearGradient><path fill="url(#SVGID_18_)" d="m435.9 337.5c-31.8 0-57.7-25.9-57.7-57.7s25.9-57.7 57.7-57.7 57.7 25.9 57.7 57.7c0 31.9-25.9 57.7-57.7 57.7zm0-109.7c-28.7 0-52.1 23.4-52.1 52.1s23.4 52.1 52.1 52.1 52.1-23.4 52.1-52.1c0-28.8-23.4-52.1-52.1-52.1z" clip-path="url(#SVGID_17_)"/></svg>