<?xml version="1.0" encoding="UTF-8" standalone="no"?>
<!DOCTYPE svg  PUBLIC '-//W3C//DTD SVG 1.1//EN'  'http://www.w3.org/Graphics/SVG/1.1/DTD/svg11.dtd'>
<svg xmlns="http://www.w3.org/2000/svg" xmlns:xlink="http://www.w3.org/1999/xlink" xml:space="preserve" version="1.1" y="0px" x="0px" viewBox="0 0 334.5 143" enable-background="new 0 0 334.5 143"><g><path d="m198.3 23.4l-5.3 5.3c-0.6 0.6-0.8 1.3-0.7 2.1s0.2 1.7 0.2 2.6v9.6c0 8.7-4.5 12-16.6 12h-18.4c-2.3 0-4.3-0.1-5.9-0.3-1.3-0.2-2.4 0.4-2.9 0.9l-3.4 3c-0.7 0.6-1 1.6-0.8 2.6 0.2 1.1 1 1.8 2.1 2.1 3.7 0.8 8.2 1.1 13.6 1.1h12.9c14.3 0 30.8-2.4 30.8-20.9v-10.6c0-3.3-0.5-6.3-1.6-8.8-0.7-1.6-2.8-2-4-0.7z" fill="#8E9300" /><path d="m170.7 12h-12.9c-14.3 0-30.8 2.4-30.8 20.9v10.5c0 7.8 2.9 13.4 8.8 16.8 0.4 0.2 0.8 0.3 1.2 0.3 0.7 0 1.3-0.2 1.8-0.7l3.6-3.3c0.6-0.5 0.9-1.3 0.9-2.1 0-0.9-0.4-1.7-1.1-2.2-2.6-1.9-3.8-4.8-3.8-9.3v-9.6c0-8.7 4.5-12 16.6-12h18.4 1.1c0.7 0 1.5-0.3 2-0.8l3.6-3.6c1.7-1.7 0.6-4.5-1.7-4.7-2.3-0.1-4.9-0.2-7.7-0.2z" fill="#880452" /><path d="m197.6 12.5l-0.7-0.7c-0.9-0.9-2-1.3-3.2-1.3-1.1 0-2.3 0.4-3.2 1.3l-4.1 4.1-5.8 5.8-13.6 13.7c-0.9 0.9-2 1.3-3.2 1.3-1.1 0-2.3-0.4-3.2-1.3l-5.3-5.3c-0.9-0.9-2-1.3-3.2-1.3-1.1 0-2.3 0.4-3.2 1.3l-0.7 0.7c-1.7 1.7-1.7 4.6 0 6.3l12.4 12.4c0.9 0.9 2 1.3 3.2 1.3 1.1 0 2.3-0.4 3.2-1.3l23.6-23.6 7.1-7.1c0.2-0.2 0.4-0.4 0.5-0.6 1.1-1.7 0.9-4.1-0.6-5.7z" fill="#880452" /><path d="m75.3 89.3c-2.1-0.9-6.1-1.4-12-1.4-5.5 0-9.1 0.4-11 1.1-1.9 0.8-2.9 2.2-3.1 4.2 0 0.3 0.1 0.6 0.3 0.8s0.5 0.4 0.9 0.4h3.9c0.3 0 0.6-0.1 0.8-0.3s0.3-0.5 0.3-0.8c0-0.8 1.2-2.2 8.9-2.2 4.5 0 6.2 0.5 6.9 0.9 0.9 0.5 1.4 1.7 1.4 3.6v1.2c-1.8-1-5.3-1.4-10.6-1.4s-8.9 0.4-10.9 1.3c-2.2 0.9-3.3 2.7-3.3 5.1 0 4.1 4.5 6.1 13.8 6.1 5.3 0 8.9-0.6 11.2-1.7v0.2c-0.1 0.3 0 0.6 0.2 0.9s0.5 0.4 0.9 0.4h3.9c0.6 0 1.1-0.5 1.1-1.1v-11.6c-0.2-2.8-1.3-4.7-3.6-5.7zm-2.6 12.4c0 1.9-3.6 2.9-10.3 2.9-3.5 0-5.8-0.2-6.9-0.7-1-0.4-1.4-1.2-1.4-2.4s0.4-1.9 1.4-2.3c1.1-0.4 3.6-0.6 7.5-0.6 4 0 6.6 0.2 8 0.7 1.2 0.4 1.7 1.2 1.7 2.4z" fill="#8E9300" /><path d="m100 89.8c0-0.9-0.8-1.7-1.8-1.7h-6.7c-0.4 0-0.6-0.2-0.6-0.5v-1.9c0-1.6 1.6-2.4 5-2.4 0.5 0 1.3 0 2.3 0.1h0.1c0.5 0 0.9-0.2 1.2-0.5s0.5-0.7 0.5-1.2c0-0.9-0.7-1.6-1.7-1.7-1 0-1.8-0.1-2.6-0.1-7.4 0-11.1 2-11.1 6v1.6c0 0.3-0.3 0.5-0.6 0.5h-3c-1 0-1.8 0.7-1.8 1.7 0 0.9 0.8 1.7 1.8 1.7h3c0.4 0 0.6 0.2 0.6 0.5v14.1c0 0.9 0.8 1.7 1.8 1.7h2.7c1 0 1.8-0.7 1.8-1.7v-13.9c0-0.3 0.3-0.5 0.6-0.5h6.7c1-0.1 1.8-0.8 1.8-1.8z" fill="#8E9300" /><path d="m130 101h-4c-0.7 0-1.2 0.5-1.2 1.1 0 1-0.5 1.6-1.4 1.9-1.2 0.4-3.8 0.5-7.9 0.5-5.2 0-7.2-0.6-8-1.1-0.9-0.6-1.4-2.1-1.5-4.5h0.1 23.9c0.7 0 1.2-0.5 1.2-1.1v-0.8c0-3.7-1.1-6.2-3.3-7.4-2.1-1.1-6.3-1.7-12.9-1.7-6.1 0-10 0.6-12.2 2s-3.3 4-3.3 7.9c0 4.1 1.1 6.9 3.3 8.3 2.1 1.3 6.4 1.9 13 1.9 5.6 0 9.5-0.4 11.8-1.2 2.4-0.8 3.7-2.4 3.7-4.5v-0.2c-0.2-0.6-0.7-1.1-1.3-1.1zm-5.3-5.5v0.3h-0.1-18.6-0.1c0.1-1.8 0.6-3 1.5-3.5 0.8-0.4 2.8-1 7.8-1 4 0 6.6 0.3 7.8 0.8s1.7 1.6 1.7 3.4z" fill="#8E9300" /><path d="m155.6 100h-2.5c-0.9 0-1.7 0.7-1.7 1.6v0.9c0 0.5 0 2.1-4.4 2.1s-4.4-1.8-4.4-2.4v-10.2c0-0.3 0.3-0.5 0.6-0.5h11.1c1 0 1.7-0.7 1.7-1.6v-0.1c0-0.9-0.8-1.6-1.7-1.6h-11.1c-0.3 0-0.6-0.2-0.6-0.5v-2.3c0-0.9-0.8-1.6-1.7-1.6h-2.8c-1 0-1.7 0.7-1.7 1.6v2.3c0 0.3-0.3 0.5-0.6 0.5h-2.5c-1 0-1.7 0.7-1.7 1.6v0.1c0 0.9 0.8 1.6 1.7 1.6h2.5c0.3 0 0.6 0.2 0.6 0.5v10.8c0 3.4 3.6 5.1 10.7 5.1 6.9 0 10.4-2 10.4-6v-0.3c-0.2-0.9-0.9-1.6-1.9-1.6z" fill="#8E9300" /><path d="m185 88.2h-2.8c-0.7 0-1.3 0.4-1.6 1l-3.6 7.5-2 4.1-0.9 2-0.6 1.3-0.9-1.3-1.3-2.1-2.7-4.1-5-7.7c-0.3-0.5-0.9-0.8-1.5-0.8h-2.6c-0.7 0-1.3 0.4-1.6 0.9s-0.2 1.1 0.1 1.6l11.5 16.7c0.2 0.2 0.3 0.5 0.5 0.7 0.3 0.4 0.6 0.9 0.7 1 0 0.1-0.1 0.5-0.2 0.7-0.6 1.5-2.4 2.2-5.4 2.2h-0.5-0.2-0.4c-1.9 0.1-1.8 1.4-1.8 2v0.2c0 0.9 0.7 1.6 1.6 1.6 0.5 0 1 0.1 1.4 0.1 3.2 0 5.8-0.5 7.5-1.6 1.8-1.1 3.4-3.1 4.8-5.9l9.1-17.9c0.3-0.5 0.2-1.1-0.1-1.5s-0.8-0.7-1.5-0.7z" fill="#8E9300" /><path d="m216.9 90.1c-2.1-1.5-5.6-2.2-10.9-2.2-5.6 0-9.2 0.6-11 2v-6.9c0-1.4-1.3-2.6-2.8-2.6h-0.6c-1.5 0-2.8 1.2-2.8 2.6v22c0 1.4 1.3 2.6 2.8 2.6h0.4c0.8 0 1.6-0.3 2.1-0.9 0.3-0.3 0.4-0.6 0.5-0.9 2.1 1.4 5.6 2.1 10.6 2.1 5.5 0 9.3-0.7 11.5-2.1s3.3-4 3.3-7.7c0.1-3.8-1-6.5-3.1-8zm-20 2.4c1.3-0.8 3.9-1.3 7.8-1.3 4.7 0 6.6 0.7 7.3 1.3 1 0.8 1.6 2.7 1.6 5.5 0 2.7-0.5 4.5-1.6 5.3s-3.5 1.3-7.1 1.3c-5.3 0-7.4-0.7-8.2-1.3-1.1-0.8-1.6-2.8-1.6-5.9 0-2.4 0.6-4.1 1.8-4.9z" fill="#8E9300" /><path d="m249.9 89.3c-2.1-0.9-6.1-1.4-12-1.4-5.5 0-9.1 0.4-11 1.1-1.9 0.8-2.9 2.2-3.1 4.2 0 0.3 0.1 0.6 0.3 0.8s0.5 0.4 0.9 0.4h3.9c0.3 0 0.6-0.1 0.8-0.3s0.3-0.5 0.3-0.8c0-0.8 1.2-2.2 8.9-2.2 4.5 0 6.2 0.5 6.9 0.9 0.9 0.5 1.4 1.7 1.4 3.6v1.2c-1.8-1-5.3-1.4-10.6-1.4s-8.9 0.4-10.9 1.3c-2.2 0.9-3.3 2.7-3.3 5.1 0 4.1 4.5 6.1 13.8 6.1 5.3 0 8.9-0.6 11.2-1.7v0.2c-0.1 0.3 0 0.6 0.2 0.9s0.5 0.4 0.9 0.4h3.9c0.6 0 1.1-0.5 1.1-1.1v-11.6c-0.2-2.8-1.3-4.7-3.6-5.7zm-2.6 12.4c0 1.9-3.6 2.9-10.3 2.9-3.5 0-5.8-0.2-6.9-0.7-1-0.4-1.4-1.2-1.4-2.4s0.4-1.9 1.4-2.3c1.1-0.4 3.6-0.6 7.5-0.6 4 0 6.6 0.2 8 0.7 1.2 0.4 1.7 1.2 1.7 2.4z" fill="#8E9300" /><path d="m284.4 89.3c-1.9-0.9-5.3-1.4-10.4-1.4-5.6 0-9.3 0.8-11.3 2.3-0.1-0.4-0.3-0.8-0.6-1.1-0.6-0.6-1.4-0.9-2.2-0.9-1.6 0-2.9 1.2-2.9 2.7v14c0 1.5 1.3 2.7 2.9 2.7h0.4c1.6 0 2.9-1.2 2.9-2.7v-8.9c0-3.2 3.4-4.8 10.2-4.8 3.2 0 5.3 0.3 6.4 0.8 0.9 0.4 1.4 1.3 1.4 2.7v10.2c0 1.5 1.3 2.7 2.9 2.7h0.4c1.6 0 2.9-1.2 2.9-2.7v-9.8c-0.1-3-1.1-4.8-3-5.8z" fill="#8E9300" /><path d="m315.3 103.9l-10.6-6c-0.3-0.2-0.5-0.4-0.5-0.8 0-0.3 0.2-0.6 0.5-0.8l7.9-4.5c0.8-0.5 1.2-1.3 1-2.2s-1.1-1.5-2.1-1.5h-0.3c-0.4 0-0.8 0.1-1.2 0.3l-11.6 6.9c-0.2 0.1-0.4 0.2-0.6 0.2h-0.3c-0.6 0-1-0.4-1-0.9v-12.3c0-1.1-1-2-2.2-2h-1.9c-1.2 0-2.2 0.9-2.2 2v23.3c0 1.1 1 2 2.2 2h1.9c1.2 0 2.2-0.9 2.2-2v-6c0-0.5 0.5-0.9 1-0.9 0.2 0 0.4 0.1 0.6 0.2l14 8.4c0.3 0.2 0.7 0.3 1.2 0.3h0.8c1 0 1.8-0.6 2.1-1.5s-0.1-1.7-0.9-2.2z" fill="#8E9300" /><path d="m35.2 96h-0.8c-0.2 0-0.5 0.1-0.6 0.3l-1.5 1.8c-0.4 0.5-0.1 1.3 0.6 1.3h1.5c4.5 0 4.8 1.8 4.8 2.4 0 1.1-0.5 1.8-1.6 2.1-1.3 0.4-4 0.6-8.2 0.6-3.4 0-5.7-0.2-6.8-0.6-0.9-0.3-1.4-0.9-1.4-1.9v-0.2c0-0.7-0.6-1.2-1.3-1.2h-3.9c-0.7 0-1.3 0.5-1.3 1.2v0.4c0 2.2 1.2 3.8 3.6 4.6 2.3 0.8 6.2 1.1 12.1 1.1 5.7 0 9.6-0.4 11.8-1.2 2.4-0.9 3.5-2.5 3.5-4.8 0-3.7-3.7-5.7-10.5-5.9z" fill="#8E9300" /><path d="m19 98.3c1.7 0.5 5.3 0.8 9.6 1 0.4 0 0.7-0.1 1-0.4l1.5-1.9c0.4-0.4 0.1-1.1-0.5-1.1l-4.5-0.1c-4.6-0.1-4.6-1.8-4.6-2.4 0-1.3 0.7-1.7 1.2-1.8 1-0.3 3.4-0.5 7.1-0.5 5 0 6.9 0.2 7.5 0.4s1 0.6 1.1 1.4c0.1 0.6 0.6 1.1 1.3 1.1h3.7c0.7 0 1.3-0.6 1.3-1.2 0-3.4-4.8-5-14.6-5-5.9 0-9.8 0.3-11.9 1.1-2.2 0.8-3.3 2.4-3.3 4.7s1.4 4 4.1 4.7z" fill="#880452" /><g fill="#8E9300"><path d="m317.2 89.2v1.5h-0.6v-1.5h-0.9v-0.3h2.3v0.3h-0.8z" /><path d="m322.4 88.8v1.9h-0.6v-1-0.3-0.1-0.1l-0.1 0.1-0.1 0.1c-0.1 0.1-0.1 0.2-0.1 0.3l-0.7 1h-0.5l-0.7-1c0-0.1-0.1-0.1-0.1-0.3l-0.1-0.1-0.1-0.1v0.1 0.1 0.3 1h-0.6v-1.9h0.9l0.5 0.9c0 0.1 0.1 0.1 0.1 0.3l0.1 0.1 0.1 0.1 0.1-0.1 0.1-0.1c0.1-0.1 0.1-0.2 0.1-0.3l0.5-0.9h1.2z" /></g><g fill="#9C9B9B"><path d="m39 131.4h2v0.2l-0.1 0.8c-0.3 0.7-1.5 1.1-3.7 1.1-1.6 0-2.7-0.2-3.2-0.5s-0.8-1.1-0.8-2.2c0-1.1 0.3-1.8 0.8-2.2s1.6-0.6 3.1-0.6 2.5 0.1 3 0.4 0.8 0.8 0.8 1.5h-2c0-0.6-0.6-0.9-1.7-0.9-0.8 0-1.3 0.1-1.5 0.3s-0.3 0.7-0.3 1.4 0.1 1.2 0.3 1.4 0.8 0.3 1.7 0.3c0.7 0 1.2-0.1 1.4-0.2 0.1 0 0.2-0.3 0.2-0.8z" /><path d="m50 128.1c1.7 0 2.8 0.2 3.3 0.5s0.8 1 0.8 2.1c0 1.2-0.3 1.9-0.8 2.3s-1.6 0.5-3.2 0.5c-1.8 0-2.9-0.2-3.4-0.5s-0.8-1.1-0.8-2.2c0-1.1 0.3-1.8 0.8-2.2s1.6-0.5 3.3-0.5zm0 1c-0.9 0-1.4 0.1-1.6 0.3s-0.4 0.6-0.4 1.3c0 0.8 0.1 1.3 0.3 1.5s0.8 0.3 1.7 0.3 1.4-0.1 1.6-0.3 0.3-0.7 0.3-1.5c0-0.7-0.1-1.1-0.4-1.3-0.1-0.2-0.7-0.3-1.5-0.3z" /><path d="m59.5 128.1h2l-0.1 0.9c0.4-0.6 1.3-1 2.7-1 2 0 3.1 0.6 3.1 1.8v3.6h-2.1v-3.4-0.4c-0.1-0.4-0.6-0.6-1.5-0.6-1.4 0-2.1 0.4-2.1 1.2v3.1h-2.1v-5.2z" /><path d="m80.1 129.6h-2v-0.1c0-0.3-0.2-0.4-0.4-0.5s-0.7-0.1-1.4-0.1c-1.1 0-1.6 0.2-1.6 0.6 0 0.3 0.1 0.5 0.3 0.5 0.2 0.1 0.8 0.1 1.9 0.1 1.5 0 2.4 0.2 2.9 0.4 0.4 0.2 0.7 0.6 0.7 1.2s-0.3 1.1-0.9 1.3-1.7 0.4-3.2 0.4-2.5-0.1-3-0.3-0.8-0.6-0.8-1.3v-0.1h2.1c0 0.1 0 0.1-0.1 0.2-0.1 0.5 0.5 0.7 1.8 0.7s2-0.2 2-0.7c0-0.4-0.4-0.7-1.2-0.7-1.8 0-3.1-0.1-3.6-0.3-0.6-0.2-0.9-0.7-0.9-1.3s0.3-1 0.8-1.2 1.6-0.3 3.1-0.3c1.4 0 2.4 0.1 2.9 0.3 0.4 0.2 0.6 0.6 0.6 1.2z" /><path d="m91.3 128.1v1h-3.3v2.7c0 0.5 0.3 0.7 0.9 0.7 0.7 0 1-0.3 1-0.9v-0.2h1.8v0.3 0.6c-0.1 0.8-1.1 1.2-2.9 1.2s-2.8-0.5-2.8-1.6v-2.8h-1.1v-1h1.1v-1.2h2v1.2h3.3z" /><path d="m96.5 128.1h2.1l-0.1 0.7c0.5-0.6 1.3-0.8 2.3-0.8 1.5 0 2.3 0.6 2.3 1.8v0.4h-1.9v-0.3c0-0.6-0.4-0.8-1.1-0.8-1 0-1.5 0.4-1.5 1.3v3.1h-2.1v-5.4z" /><path d="m115.6 128.1v5.3h-2.1l0.1-0.9c-0.4 0.7-1.3 1-2.8 1-2 0-2.9-0.6-2.9-1.8v-3.6h2.1v3.3c0 0.5 0.1 0.7 0.3 0.9 0.2 0.1 0.6 0.2 1.3 0.2 1.3 0 2-0.5 2-1.5v-2.9h2z" /><path d="m126.9 131.4h2.1v0.2l-0.1 0.8c-0.3 0.7-1.5 1.1-3.7 1.1-1.6 0-2.7-0.2-3.2-0.5s-0.8-1.1-0.8-2.2c0-1.1 0.3-1.8 0.8-2.2s1.6-0.6 3.1-0.6 2.5 0.1 3 0.4 0.8 0.8 0.8 1.5h-2c0-0.6-0.6-0.9-1.7-0.9-0.8 0-1.3 0.1-1.5 0.3s-0.3 0.7-0.3 1.4 0.1 1.2 0.3 1.4 0.8 0.3 1.7 0.3c0.7 0 1.2-0.1 1.4-0.2 0 0 0.1-0.3 0.1-0.8z" /><path d="m139.7 128.1v1h-3.3v2.7c0 0.5 0.3 0.7 0.9 0.7 0.7 0 1-0.3 1-0.9v-0.2h1.8v0.3 0.6c-0.1 0.8-1.1 1.2-2.9 1.2s-2.8-0.5-2.8-1.6v-2.8h-1.1v-1h1.1v-1.2h2.1v1.2h3.2z" /><path d="m146.9 125.9v1.1h-2.1v-1.1h2.1zm0 2.2v5.3h-2.1v-5.3h2.1z" /><path d="m156.4 128.1c1.7 0 2.8 0.2 3.3 0.5s0.8 1 0.8 2.1c0 1.2-0.3 1.9-0.8 2.3s-1.6 0.5-3.2 0.5c-1.8 0-2.9-0.2-3.4-0.5s-0.8-1.1-0.8-2.2c0-1.1 0.3-1.8 0.8-2.2s1.6-0.5 3.3-0.5zm0 1c-0.9 0-1.4 0.1-1.6 0.3s-0.4 0.6-0.4 1.3c0 0.8 0.1 1.3 0.3 1.5s0.8 0.3 1.7 0.3 1.4-0.1 1.6-0.3 0.3-0.7 0.3-1.5c0-0.7-0.1-1.1-0.4-1.3-0.1-0.2-0.7-0.3-1.5-0.3z" /><path d="m165.9 128.1h2l-0.1 0.9c0.4-0.6 1.3-1 2.7-1 2 0 3.1 0.6 3.1 1.8v3.6h-2.1v-3.4-0.4c-0.1-0.4-0.6-0.6-1.5-0.6-1.4 0-2.1 0.4-2.1 1.2v3.1h-2.1v-5.2z" /><path d="m193.1 131.4h2.1v0.2l-0.1 0.8c-0.3 0.7-1.5 1.1-3.7 1.1-1.6 0-2.7-0.2-3.2-0.5s-0.8-1.1-0.8-2.2c0-1.1 0.3-1.8 0.8-2.2s1.6-0.6 3.1-0.6 2.5 0.1 3 0.4 0.8 0.8 0.8 1.5h-2c0-0.6-0.6-0.9-1.7-0.9-0.8 0-1.3 0.1-1.5 0.3s-0.3 0.7-0.3 1.4 0.1 1.2 0.3 1.4 0.8 0.3 1.7 0.3c0.7 0 1.2-0.1 1.4-0.2 0 0 0.1-0.3 0.1-0.8z" /><path d="m204.1 128.1c1.7 0 2.8 0.2 3.3 0.5s0.8 1 0.8 2.1c0 1.2-0.3 1.9-0.8 2.3s-1.6 0.5-3.2 0.5c-1.8 0-2.9-0.2-3.4-0.5s-0.8-1.1-0.8-2.2c0-1.1 0.3-1.8 0.8-2.2s1.6-0.5 3.3-0.5zm0 1c-0.9 0-1.4 0.1-1.6 0.3s-0.4 0.6-0.4 1.3c0 0.8 0.1 1.3 0.3 1.5s0.8 0.3 1.7 0.3 1.4-0.1 1.6-0.3 0.3-0.7 0.3-1.5c0-0.7-0.1-1.1-0.4-1.3-0.1-0.2-0.6-0.3-1.5-0.3z" /><path d="m213.6 128.1h2l-0.1 0.9c0.4-0.6 1.3-1 2.7-1 2 0 3.1 0.6 3.1 1.8v3.6h-2.1v-3.4-0.4c-0.1-0.4-0.6-0.6-1.5-0.6-1.4 0-2.1 0.4-2.1 1.2v3.1h-2.1v-5.2z" /><path d="m227.1 128.1h2l-0.1 0.9c0.4-0.6 1.3-1 2.7-1 2 0 3.1 0.6 3.1 1.8v3.6h-2.1v-3.4-0.4c-0.1-0.4-0.6-0.6-1.5-0.6-1.4 0-2.1 0.4-2.1 1.2v3.1h-2.1v-5.2z" /><path d="m246.1 131.7h2.1v0.2c0 1-1.3 1.6-3.8 1.6-1.7 0-2.8-0.2-3.4-0.5s-0.8-1.1-0.8-2.3c0-1 0.3-1.7 0.8-2.1 0.6-0.4 1.6-0.5 3.2-0.5 1.5 0 2.6 0.2 3.1 0.5s0.8 1 0.8 2v0.4h-5.8v0.2c0 0.5 0.1 0.9 0.4 1 0.3 0.2 0.8 0.3 1.6 0.3s1.2-0.1 1.5-0.2 0.3-0.2 0.3-0.6zm0-1.5v-0.2c0-0.4-0.1-0.7-0.4-0.8-0.2-0.1-0.8-0.2-1.5-0.2-0.8 0-1.3 0.1-1.5 0.2s-0.3 0.5-0.3 1h3.7z" /><path d="m259.1 131.4h2.1v0.2l-0.1 0.8c-0.3 0.7-1.5 1.1-3.7 1.1-1.6 0-2.7-0.2-3.2-0.5s-0.8-1.1-0.8-2.2c0-1.1 0.3-1.8 0.8-2.2s1.6-0.6 3.1-0.6 2.5 0.1 3 0.4 0.8 0.8 0.8 1.5h-2c0-0.6-0.6-0.9-1.7-0.9-0.8 0-1.3 0.1-1.5 0.3s-0.3 0.7-0.3 1.4 0.1 1.2 0.3 1.4 0.8 0.3 1.7 0.3c0.7 0 1.2-0.1 1.4-0.2 0 0 0.1-0.3 0.1-0.8z" /><path d="m271.9 128.1v1h-3.3v2.7c0 0.5 0.3 0.7 0.9 0.7 0.7 0 1-0.3 1-0.9v-0.2h1.8v0.3 0.6c-0.1 0.8-1.1 1.2-2.9 1.2s-2.8-0.5-2.8-1.6v-2.8h-1.1v-1h1.1v-1.2h2.1v1.2h3.2z" /><path d="m282.6 131.7h2.1v0.2c0 1-1.3 1.6-3.8 1.6-1.7 0-2.8-0.2-3.4-0.5s-0.8-1.1-0.8-2.3c0-1 0.3-1.7 0.8-2.1 0.6-0.4 1.6-0.5 3.2-0.5 1.5 0 2.6 0.2 3.1 0.5s0.8 1 0.8 2v0.4h-5.8v0.2c0 0.5 0.1 0.9 0.4 1 0.3 0.2 0.8 0.3 1.6 0.3s1.2-0.1 1.5-0.2 0.3-0.2 0.3-0.6zm0-1.5v-0.2c0-0.4-0.1-0.7-0.4-0.8-0.2-0.1-0.8-0.2-1.5-0.2-0.8 0-1.3 0.1-1.5 0.2s-0.3 0.5-0.3 1h3.7z" /><path d="m297.7 125.9v7.6h-2l0.1-0.9c-0.4 0.6-1.3 0.9-2.6 0.9-1.4 0-2.3-0.2-2.7-0.6s-0.7-1.2-0.7-2.3c0-0.9 0.2-1.6 0.7-2s1.3-0.6 2.5-0.6c1.4 0 2.3 0.3 2.6 0.8v-3h2.1zm-4 3.2c-0.8 0-1.3 0.1-1.5 0.3s-0.3 0.6-0.3 1.3c0 0.8 0.1 1.3 0.3 1.5s0.7 0.3 1.5 0.3 1.4-0.1 1.6-0.3 0.3-0.7 0.3-1.5c0-0.7-0.1-1.1-0.4-1.3-0.2-0.2-0.7-0.3-1.5-0.3z" /></g></g></svg>